<svg width="200" height="30" viewBox="0 0 200 30" fill="none" xmlns="http://www.w3.org/2000/svg">
<g clip-path="url(#clip0_1821_18263)">
<path d="M36.5959 13.4471L33.1079 0H36.2699L39.1659 11.4109L42.0619 0H45.1019L41.6339 13.4471H36.5959Z" fill="#D74646"></path>
<path d="M59.074 13.4471V0H62.134V10.545H68.354V13.4491H59.074V13.4471Z" fill="#D74646"></path>
<path d="M109.432 13.4471V0H113.838L117.06 9.51697V0H119.998V13.4471H115.714L112.368 3.58814V13.4471H109.43H109.432Z" fill="#D74646"></path>
<path d="M44.584 13.4471L48.786 0H53.518L57.72 13.4471H54.518L53.774 10.9878L54.284 10.4837H47.92L48.43 10.9878L47.686 13.4471H44.586H44.584ZM49.418 7.6804H52.784L51.092 2.03427L49.42 7.6804H49.418Z" fill="#D74646"></path>
<path d="M95.094 13.4471L99.296 0H104.028L108.23 13.4471H105.028L104.284 10.9878L104.794 10.4837H98.43L98.94 10.9878L98.196 13.4471H95.096H95.094ZM99.928 7.6804H103.294L101.602 2.03427L99.93 7.6804H99.928Z" fill="#D74646"></path>
<path d="M92.032 8.95157L91.6479 8.44745H91.934C92.314 8.44745 92.64 8.31301 92.914 8.04415L94.0359 6.93509C94.3219 6.65239 94.464 6.31631 94.464 5.92685V2.52059C94.464 2.13114 94.3219 1.79506 94.0359 1.51236L92.914 0.403295C92.642 0.134432 92.316 0 91.934 0H83.8979V13.4471H86.958V8.44745H88.0599C88.2359 8.44745 88.352 8.48699 88.406 8.56804L92.0359 13.4471H94.464V12.1364L92.034 8.94959L92.032 8.95157ZM91.444 4.83954C91.444 4.94827 91.4039 5.04119 91.3219 5.12224L90.934 5.50577C90.852 5.58682 90.7579 5.62636 90.6479 5.62636H86.956V3.3687L86.446 2.86458H90.6479C90.7559 2.86458 90.852 2.90412 90.934 2.98517L91.3219 3.3687C91.4039 3.44975 91.444 3.54267 91.444 3.6514V4.84152V4.83954Z" fill="#D74646"></path>
<path d="M81.122 2.07578L79.45 0.423064C79.164 0.140362 78.824 0 78.43 0H72.964C72.57 0 72.23 0.140362 71.944 0.423064L70.272 2.07578C69.986 2.35848 69.844 2.69456 69.844 3.08402V10.3631C69.844 10.7526 69.986 11.0886 70.272 11.3713L71.944 13.0241C72.23 13.3068 72.57 13.4471 72.964 13.4471H78.43C78.824 13.4471 79.164 13.3068 79.45 13.0241L81.122 11.3713C81.408 11.0886 81.55 10.7526 81.55 10.3631V3.08402C81.55 2.69456 81.408 2.35848 81.122 2.07578ZM78.49 9.61582C78.49 9.75025 78.462 9.84514 78.408 9.89852L77.878 10.4224C77.796 10.5035 77.702 10.543 77.592 10.543H73.798C73.69 10.543 73.594 10.5035 73.512 10.4224L72.982 9.89852C72.928 9.84514 72.9 9.75025 72.9 9.61582V3.40626L72.39 2.90214H77.592C77.7 2.90214 77.796 2.94168 77.878 3.02273L78.408 3.54662C78.462 3.6 78.49 3.69489 78.49 3.82932V9.61582Z" fill="#D74646"></path>
<path d="M124.954 13.4471V3.28567L125.464 2.78155H121.202V0H131.768V2.78155H127.506L128.016 3.28567V13.4471H124.956H124.954Z" fill="#D74646"></path>
<path d="M46.7659 30V16.5529H49.8259V21.8155H54.2719V16.5529H57.3319V30H54.2719V24.7176H49.8259V30H46.7659Z" fill="#D74646"></path>
<path d="M75.892 30H72.874V16.5529H77.974L80.38 26.3921L82.828 16.5529H87.866V30H84.888V18.5278L81.992 30H78.728L75.892 18.5476V30Z" fill="#D74646"></path>
<path d="M90.4958 30V16.5529H98.5318C98.9118 16.5529 99.2378 16.6873 99.5118 16.9562L100.634 18.0652C100.92 18.3479 101.062 18.684 101.062 19.0735V22.4817C101.062 22.8712 100.92 23.2073 100.634 23.49L99.5118 24.599C99.2398 24.8679 98.9138 25.0023 98.5318 25.0023H93.5558V30.002H90.4958V30ZM93.5558 22.1773H97.2478C97.3558 22.1773 97.4519 22.1377 97.5339 22.0567L97.9218 21.6731C98.0038 21.5921 98.0438 21.4992 98.0438 21.3904V20.2003C98.0438 20.0936 98.0038 19.9987 97.9218 19.9176L97.5339 19.5341C97.4519 19.4531 97.3578 19.4135 97.2478 19.4135H93.0458L93.5558 19.9176V22.1753V22.1773Z" fill="#D74646"></path>
<path d="M102.774 30V16.5529H105.834V30H102.774Z" fill="#D74646"></path>
<path d="M122.234 30V16.5529H126.64L129.862 26.0699V16.5529H132.8V30H128.516L125.17 20.141V30H122.232H122.234Z" fill="#D74646"></path>
<path d="M58.5339 30L62.7359 16.5529H67.4679L71.6699 30H68.4679L67.7239 27.5407L68.2339 27.0366H61.8699L62.3799 27.5407L61.6359 30H58.5359H58.5339ZM63.3679 24.2333H66.7339L65.0419 18.5872L63.3699 24.2333H63.3679Z" fill="#D74646"></path>
<path d="M36.5478 27.0959H41.3198C41.4278 27.0959 41.5238 27.0564 41.6058 26.9753L43.1758 25.4234L45.2758 27.4992L43.1758 29.575C42.8898 29.8577 42.5498 29.998 42.1558 29.998H37.1178C36.7238 29.998 36.3838 29.8577 36.0978 29.575L34.4258 27.9223C34.1398 27.6396 33.9978 27.3035 33.9978 26.914V19.6349C33.9978 19.2455 34.1398 18.9094 34.4258 18.6267L36.0978 16.974C36.3838 16.6913 36.7238 16.5509 37.1178 16.5509H42.1558C42.5498 16.5509 42.8898 16.6913 43.1758 16.974L45.2758 19.0498L43.1758 21.1255L41.6058 19.5737C41.5238 19.4926 41.4298 19.4531 41.3198 19.4531H36.5478L37.0578 19.9572V26.5898L36.5478 27.0939V27.0959Z" fill="#D74646"></path>
<path d="M119.46 18.6287L117.788 16.976C117.502 16.6932 117.162 16.5529 116.768 16.5529H111.302C110.908 16.5529 110.568 16.6932 110.282 16.976L108.61 18.6287C108.324 18.9114 108.182 19.2475 108.182 19.6369V26.916C108.182 27.3054 108.324 27.6415 108.61 27.9242L110.282 29.5769C110.568 29.8596 110.908 30 111.302 30H116.768C117.162 30 117.502 29.8596 117.788 29.5769L119.46 27.9242C119.746 27.6415 119.888 27.3054 119.888 26.916V19.6369C119.888 19.2475 119.746 18.9114 119.46 18.6287ZM116.828 26.1687C116.828 26.3031 116.8 26.398 116.746 26.4514L116.216 26.9753C116.134 27.0563 116.04 27.0959 115.93 27.0959H112.136C112.028 27.0959 111.932 27.0563 111.85 26.9753L111.32 26.4514C111.266 26.398 111.238 26.3031 111.238 26.1687V19.9591L110.728 19.455H115.93C116.038 19.455 116.134 19.4946 116.216 19.5756L116.746 20.0995C116.8 20.1529 116.828 20.2478 116.828 20.3822V26.1687Z" fill="#D74646"></path>
<path d="M137.47 19.4155L137.98 19.9196V21.169C137.98 21.2758 138.018 21.3667 138.092 21.4419C138.166 21.515 138.252 21.5605 138.346 21.5723L144.852 22.4185C145.22 22.4718 145.526 22.63 145.77 22.8929C146.014 23.1559 146.138 23.4682 146.138 23.83V26.914C146.138 27.3035 145.996 27.6396 145.71 27.9223L144.038 29.575C143.752 29.8577 143.412 29.998 143.018 29.998H137.674C137.28 29.998 136.94 29.8577 136.654 29.575L134.554 27.4992L136.574 25.4827L138.124 27.0148C138.206 27.0959 138.3 27.1354 138.41 27.1354H142.224C142.332 27.1354 142.428 27.0959 142.51 27.0148L143.082 26.4494C143.136 26.3961 143.164 26.3012 143.164 26.1667V25.3601C143.164 25.2672 143.126 25.1783 143.052 25.0972C142.978 25.0162 142.886 24.9687 142.776 24.9568L136.29 24.1305C135.922 24.0771 135.616 23.919 135.372 23.656C135.128 23.3931 135.004 23.0807 135.004 22.719V19.6349C135.004 19.2455 135.146 18.9094 135.432 18.6267L137.104 16.974C137.39 16.6913 137.73 16.5509 138.124 16.5509H143.284C143.718 16.5509 144.06 16.6913 144.304 16.974L146.384 19.0498L144.364 21.0662L142.814 19.5341C142.732 19.4531 142.638 19.4135 142.528 19.4135H137.47V19.4155Z" fill="#D74646"></path>
<path d="M197.57 25.5045L197.186 25.0003H197.472C197.852 25.0003 198.178 24.8659 198.452 24.597L199.574 23.488C199.86 23.2053 200.002 22.8692 200.002 22.4797V19.0715C200.002 18.6821 199.86 18.346 199.574 18.0633L198.452 16.9542C198.18 16.6854 197.854 16.5509 197.472 16.5509H189.436V29.998H192.496V24.9984H193.598C193.774 24.9984 193.89 25.0379 193.944 25.119L197.574 29.998H200.002V28.6873L197.572 25.5005L197.57 25.5045ZM196.982 21.3924C196.982 21.5012 196.942 21.5941 196.86 21.6751L196.472 22.0587C196.39 22.1397 196.296 22.1793 196.186 22.1793H192.494V19.9216L191.984 19.4175H196.186C196.294 19.4175 196.39 19.457 196.472 19.5381L196.86 19.9216C196.942 20.0026 196.982 20.0956 196.982 20.2043V21.3944V21.3924Z" fill="#D74646"></path>
<path d="M178.624 29.5769L176.952 27.9242C176.666 27.6415 176.524 27.3054 176.524 26.916V16.5529H179.584V26.23C179.584 26.3367 179.624 26.4316 179.706 26.5127L180.196 26.9773C180.278 27.0583 180.372 27.0979 180.482 27.0979H183.154C183.262 27.0979 183.358 27.0583 183.44 26.9773L183.91 26.5127C183.992 26.4316 184.032 26.3387 184.032 26.23V16.5529H187.092V26.916C187.092 27.3054 186.95 27.6415 186.664 27.9242L184.992 29.5769C184.706 29.8596 184.366 30 183.972 30H179.648C179.254 30 178.914 29.8596 178.628 29.5769H178.624Z" fill="#D74646"></path>
<path d="M154.868 30V19.8386L155.378 19.3344H151.116V16.5529H161.682V19.3344H157.42L157.93 19.8386V30H154.87H154.868Z" fill="#D74646"></path>
<path d="M173.892 18.6287L172.22 16.976C171.934 16.6932 171.594 16.5529 171.2 16.5529H165.734C165.34 16.5529 165 16.6932 164.714 16.976L163.042 18.6287C162.756 18.9114 162.614 19.2475 162.614 19.6369V26.916C162.614 27.3054 162.756 27.6415 163.042 27.9242L164.714 29.5769C165 29.8596 165.34 30 165.734 30H171.2C171.594 30 171.934 29.8596 172.22 29.5769L173.892 27.9242C174.178 27.6415 174.32 27.3054 174.32 26.916V19.6369C174.32 19.2475 174.178 18.9114 173.892 18.6287ZM171.26 26.1687C171.26 26.3031 171.232 26.398 171.178 26.4514L170.648 26.9753C170.566 27.0563 170.472 27.0959 170.362 27.0959H166.568C166.46 27.0959 166.364 27.0563 166.282 26.9753L165.752 26.4514C165.698 26.398 165.67 26.3031 165.67 26.1687V19.9591L165.16 19.455H170.362C170.47 19.455 170.566 19.4946 170.648 19.5756L171.178 20.0995C171.232 20.1529 171.26 20.2478 171.26 20.3822V26.1687Z" fill="#D74646"></path>
<path d="M11.6578 10.8811C11.7278 10.9681 11.8338 11.0175 11.9458 11.0175H16.1118C16.1838 11.0175 16.2238 10.9344 16.1798 10.8791L7.39985 0.0316432C7.34785 -0.0316188 7.24585 0.00396608 7.24585 0.0850204V5.30215C7.24585 5.38518 7.27385 5.46624 7.32785 5.53148L11.6578 10.883V10.8811Z" fill="#D74646"></path>
<path d="M14.964 7.29293H19.128C19.24 7.29293 19.346 7.24153 19.418 7.15652L20.734 5.53148C20.786 5.46624 20.816 5.38519 20.816 5.30215V0.0850204C20.816 0.00396608 20.712 -0.0316188 20.662 0.0316432L14.898 7.15454C14.852 7.2099 14.892 7.29293 14.966 7.29293" fill="#D74646"></path>
<path d="M9.42187 16.4026V13.6013C9.42187 13.5183 9.39387 13.4372 9.34187 13.374L4.53987 7.43329C4.46987 7.34631 4.36387 7.29491 4.24987 7.29491H0.0858681C0.0138681 7.29491 -0.0261319 7.37794 0.0178681 7.43329L6.02787 14.8606C6.09387 14.9437 6.09387 15.0603 6.02787 15.1433L0.0198681 22.5687C-0.0261319 22.6241 0.0138681 22.7071 0.0878681 22.7071H4.25187C4.36387 22.7071 4.46987 22.6557 4.54187 22.5707L9.34387 16.632C9.39587 16.5667 9.42387 16.4877 9.42387 16.4046" fill="#D74646"></path>
<path d="M22.03 15.1414C21.964 15.0583 21.964 14.9417 22.03 14.8587L28.04 7.43131C28.086 7.37595 28.046 7.29292 27.972 7.29292H23.806C23.694 7.29292 23.588 7.34432 23.516 7.42933L18.716 13.368C18.664 13.4333 18.636 13.5124 18.636 13.5954V16.3967C18.636 16.4797 18.664 16.5608 18.716 16.6241L23.516 22.5648C23.586 22.6517 23.692 22.7012 23.806 22.7012H27.97C28.042 22.7012 28.082 22.6181 28.038 22.5628L22.028 15.1354L22.03 15.1414Z" fill="#D74646"></path>
<path d="M20.7339 24.4705L16.4038 19.119C16.3338 19.032 16.2278 18.9825 16.1138 18.9825H11.9619C11.8398 18.9825 11.7258 19.0379 11.6498 19.1308L7.32785 24.4705C7.27585 24.5358 7.24585 24.6148 7.24585 24.6998V29.917C7.24585 29.998 7.34985 30.0336 7.39985 29.9704L13.8838 21.9559C13.9578 21.8649 14.0999 21.8649 14.1739 21.9559L20.6599 29.9704C20.7119 30.0336 20.8138 29.998 20.8138 29.917V24.6998C20.8138 24.6168 20.7859 24.5358 20.7319 24.4705" fill="#D74646"></path>
</g>
<defs>
<clipPath id="clip0_1821_18263">
<rect width="200" height="30" fill="white"></rect>
</clipPath>
</defs>
</svg>
