<svg xmlns="http://www.w3.org/2000/svg" xml:space="preserve" width="450.89999" height="149.39999" viewBox="0 0 119.30062 39.528749"><path d="m0 0 13.007 15.273c1.832-1.184 3.601-1.926 5.395-2.518.876-.289 1.748-.508 2.627-.682a23.316 23.316 0 0 1 2.668-.374c1.882-.151 3.886-.07 5.91-.093 2.118-.025 4.418.045 6.991.003-2.039-.733-4.834-2.213-6.596-3.457.848.519 2.603 1.387 5.125 2.16a29.954 29.954 0 0 0 10.05 1.297L51.879 0ZM16.625 39.529c1.314-1.984 3.637-6.414 4.235-7.305.847-1.26 1.74-1.718 2.144-1.944 1.093-.61 2.373-.652 4.548-.633 2.175.019 5.246.098 7.208-.005l6.704-11.595h-8.39c-2.946.033-6.212-.042-8.385.03a17.8 17.8 0 0 0-6.75 1.792 16.97 16.97 0 0 0-4.875 3.622c.59-.363 1.297-.713 2.083-1.06.79-.35 1.682-.65 2.653-.902.97-.253 2.025-.447 3.134-.575 1.11-.128 2.273-.19 3.484-.15-5.187.691-8.294 2.186-10.862 4.197-2.375 1.91-4.253 4.287-5.825 6.843-2.867 4.66-3.951 6.903-4.477 7.685ZM55.502 0 48.73 11.705l19.16-.01c.027.015.92-.1 1.723.334.75.406 1.757 1.287 1.817 2.834a3 3 0 0 1-.166 1.105 3.04 3.04 0 0 1-.438.84c-.36.483-.804.824-1.237 1.04-.868.435-1.639.326-1.639.326l-22.954.004-12.33 21.352H46.16l5.59-9.663h16.788c2.74-.097 5.684-.819 8.717-3.052 1.356-.998 2.82-2.621 3.8-4.305 1.01-1.739 1.556-3.235 1.932-5.494.312-2.535.09-4.66-.63-6.427-.717-1.764-1.779-3.224-3.232-4.4-2.946-2.383-7.391-3.683-12.306-4.247.98-.052 1.99-.05 2.886-.002.896.048 1.779.143 2.691.314 2.016.376 4.04.909 6.286 2.064-.62-.644-1.74-1.637-3.388-2.516C73.645.924 71.467.16 68.69.008Z" style="display:inline;fill:#fa0f00;fill-opacity:1;stroke-width:.962001"/><path d="M75.116 0c1.673.65 2.61 1.117 3.301 1.524.691.408 1.138.755 1.801 1.188 1.692 1.291 3.02 2.686 4.255 4.126 1.222 1.424 2.23 2.817 3.774 4.249 1.088 1.009 2.122 1.666 3.257 2.027 1.135.362 2.383.43 3.785.4a10.422 10.422 0 0 1-3.329-1.179c-1.072-.612-2.04-1.46-2.687-2.6 1.136 1.185 3.274 1.934 4.605 2.217.407.087.373.085.724.157.351.073 1.087.22 1.447.29.688.132 1.392.3 2.233.66a5.472 5.472 0 0 1 2.154 1.838c.491.714.841 1.467 1.114 2.193-1.188-.685-2.374-1.052-3.525-1.157-1.147-.104-2.27.052-3.393.434-2.248.764-4.49 2.413-6.887 4.59-2.572 2.337-6.246 6.1-9.333 8.288-1.745 1.237-3.347 2-4.81 2.457-1.451.452-2.69.739-3.815.916 1.185.058 2.863-.032 4.685-.342.888-.15 1.791-.35 2.74-.653.95-.302 1.953-.714 2.955-1.284-1.304 1.459-3.01 2.719-4.78 3.765-1.767 1.045-3.694 1.87-5.63 2.588-3.859 1.43-7.917 2.215-11.368 2.837h27.347l10.081-11.87 6.853 11.87h13.373L103.73 18.344 119.3 0h-13.394l-7.624 8.974L93.07 0Z" style="display:inline;fill:#fa0f00;fill-opacity:1;stroke-width:.962001"/></svg>