<svg xmlns="http://www.w3.org/2000/svg" width="1696" height="1788.5608" viewBox="0 0 1696 1788.5608"><path d="m0 0-53.089-33.73v153.863H0Zm167.759 288.783h-388.607V-861.6l167.759-107.128v737.012L0-197.986v-769.732l167.759 107.306v712.902H79.396l88.363 56.118z" style="fill:#ff198f;fill-opacity:1;fill-rule:nonzero;stroke:none" transform="matrix(1.33333 0 0 -1.33333 883.392 496.923)"/><path d="m0 0-82.959-52.673H0v-680.182l-167.759 107.069v519.252l-53.089-33.73v-451.614L-388.607-484.75v868.369h167.759V61.284l53.089 33.73v288.605H0Z" style="fill:#ff198f;fill-opacity:1;fill-rule:nonzero;stroke:none" transform="matrix(1.33333 0 0 -1.33333 518.143 623.372)"/><path d="m0 0-83.851-83.849L-167.759 0l83.908 83.91Z" style="fill:#ff198f;fill-opacity:1;fill-rule:nonzero;stroke:none" transform="matrix(1.33333 0 0 -1.33333 1401.536 111.88)"/><path d="m0 0-83.85-83.849L-167.759 0l83.909 83.91Z" style="fill:#ff198f;fill-opacity:1;fill-rule:nonzero;stroke:none" transform="matrix(1.33333 0 0 -1.33333 1696 111.88)"/><path d="M0 0v-742.12l-166.215-106.356-53.089-33.908-167.759-107.366V0h167.759v-680.539l53.089 33.731V0Z" style="fill:#ff198f;fill-opacity:1;fill-rule:nonzero;stroke:none" transform="matrix(1.33333 0 0 -1.33333 1693.941 279.183)"/></svg>