<svg xmlns="http://www.w3.org/2000/svg" width="290" height="243" viewBox="4 4 290 243"><path d="M152.17 4.806c-1.812.073-4.894.272-6.784.447a71.397 71.397 0 0 1-13.2 0l-1.765-.29-.398.49c-.35.429-.502.483-1.305.423a11.744 11.744 0 0 0-3.323.127 11.08 11.08 0 0 0-2.326.574 45.86 45.86 0 0 1-10.97 2.042 34.683 34.683 0 0 0-10.875 2.24 55.369 55.369 0 0 1-6.645 1.813 113.88 113.88 0 0 0-24.165 8.035c-4.066 1.758-8.954 3.625-11.992 4.646a57.193 57.193 0 0 0-10.687 5.788c-1.384.93-3.263 2.102-4.18 2.597a15.218 15.218 0 0 0-2.695 1.885 22.123 22.123 0 0 1-2.417 1.915 54.233 54.233 0 0 0-5.66 4.429 42.289 42.289 0 0 1-3.728 2.84l-2.386 1.57a1.208 1.208 0 0 1-.786.254c-.713-.272-2.265.81-3.818 2.658-2.537 3.02-3.135 3.48-4.628 3.48h-.918v1.758l-1.643 1.335a35.408 35.408 0 0 0-8.385 11.2L5.886 68.2l1.583 2.585a35.487 35.487 0 0 1 1.903 3.414 2.247 2.247 0 0 0 1.142 1.305 23.259 23.259 0 0 1 2.417 1.812 10.059 10.059 0 0 0 2.827 1.812 3.31 3.31 0 0 1 1.746 1.209c.471.652 1.244.996 1.244.555 0-.09.339-.362.75-.604a6.198 6.198 0 0 0 1.45-1.353c.604-.761.809-.924 1.37-.973.563-.048.859-.265 2.17-1.764a42.833 42.833 0 0 1 6.35-5.896c1.377-1.112 3.364-2.791 4.415-3.74a74.26 74.26 0 0 1 26.963-10.699c4.586-.948 20.13-3.431 21.477-3.431a97.87 97.87 0 0 1-11.545 20.19 8.651 8.651 0 0 0-.81 2.102c-.476 1.776-.863 2.471-1.528 2.767a.689.689 0 0 0-.453.719.876.876 0 0 1-.205.634c-.115.073-.17.453-.133.882.066.683-.054.96-1.25 2.785a82.054 82.054 0 0 0-7.148 13.83 78.175 78.175 0 0 1-7.66 14.498 16.614 16.614 0 0 0-2.501 5.154 91.641 91.641 0 0 1-5.335 12.222 99.966 99.966 0 0 0-4.984 11.019 20.734 20.734 0 0 1-1.365 3.093.973.973 0 0 0-.296.55c0 .145-.2.386-.447.55a1.945 1.945 0 0 0-.677 1.244 54.445 54.445 0 0 1-5.564 12.82 43.304 43.304 0 0 0-5.087 11.642c-.604 2.157-.604 2.163-1.117 2.114-.514-.048-1.245 1.324-3.184 7.045a15.544 15.544 0 0 1-3.486 6.524c-.99 1.076-1.063 1.209-1.027 1.982a2.157 2.157 0 0 1-.483 1.577c-.81 1.154-.761 1.897.12 2.084 1.155.242 1.565.604 2.09 2a9.805 9.805 0 0 0 1.21 2.175 3.474 3.474 0 0 1 .549 3.42c-.17.44-.145.47.362.47.508 0 .574.09.744.725.344 1.275 1.16 1.07 1.842-.459.332-.743.417-.815.743-.646a2.87 2.87 0 0 0 1.076.193c1.208 0 1.546.163 1.546.725a5.25 5.25 0 0 0 .284 1.323l.284.828h1.559a5.226 5.226 0 0 1 3.764 1.105l.857.647 1.475-.755c1.74-.895 1.63-.883 2.368-.272l.604.483.423-.399c.453-.417 1.6-.833 1.6-.604 0 .085-.138.206-.307.266-.17.06-.26.163-.206.217a10.524 10.524 0 0 0 4.23-1.504c0-.115-.393 0-.895.236a7.093 7.093 0 0 1-1.607.55l-.713.114.103-.876c.133-1.172.471-1.504 1.269-1.208 1.734.604 2.918.085 4.585-2a7.854 7.854 0 0 1 2.846-2.604 1.94 1.94 0 0 0 .833-.821 4.229 4.229 0 0 1 1.148-1.208 4.465 4.465 0 0 0 1.118-1.088c.181-.302.393-.55.471-.55.272 0 .145.435-.242.846a.816.816 0 0 0 .23 1.372c1.04.55 8.138-6.5 11.938-11.847a56.354 56.354 0 0 0 7.6-14.288 5.467 5.467 0 0 1 2.09-3.891c2.006-1.855 2.175-2.169 4.725-8.621a29.548 29.548 0 0 1 1.933-4.036 5.794 5.794 0 0 0 .864-1.812 9.72 9.72 0 0 1 2.658-3.951l1.353-1.426 1.414 1.873 1.752-.242.44.979a10.27 10.27 0 0 0 2.333 2.821 129.75 129.75 0 0 1 9.666 11.044l4.26 5.154-1.312-.067c-1.492-.072-1.89.163-1.685.985.175.683.876.876 2.646.743 1.117-.085 1.552-.054 1.661.109.206.326-1.92 2.187-4.942 4.325a10.832 10.832 0 0 0-3.16 2.78 5.256 5.256 0 0 1-3.932 2.802c-.218 0-.338.236-.429.828-.072.453-.193.828-.272.828a39.692 39.692 0 0 0-5.781 4.048 27.047 27.047 0 0 1-5.691 3.975 13.672 13.672 0 0 0-2.773 1.909 90.669 90.669 0 0 1-14.783 10.675 14.856 14.856 0 0 0-3.553 2.833 23.078 23.078 0 0 1-6.494 4.76c-1.722.883-1.952 1.064-2.006 1.53-.054.465-.544.845-4 3.129-2.168 1.432-4.899 3.286-6.077 4.126a30.811 30.811 0 0 1-3.184 2.036 6.766 6.766 0 0 0-2.03 1.613 43.214 43.214 0 0 1-14.179 8.675l-2.26.9-.827 1.251a27.035 27.035 0 0 1-7.582 6.917 56.257 56.257 0 0 0-6.905 5.154.99.99 0 0 1-.677.308.96.96 0 0 0-.652.278.761.761 0 0 1-.465.278c-.544 0-.604 1.685-.097 2.205.363.362.375.362 1.208 0 .466-.2 2.036-.786 3.492-1.311a14.215 14.215 0 0 0 5.305-2.592c.815-.737 1.97-1.341 2.253-1.166.41.254 2.47-.707 3.528-1.643a3.13 3.13 0 0 1 3.02-1.1c.526.09.726.067.641-.072-.235-.38 1.064-1.438 2.308-1.88.665-.235 1.957-.778 2.87-1.207 2.168-1.04 3.304-1.064 4.416-.11.29.255.242.37-.665 1.59a66.292 66.292 0 0 0-1.897 2.736c-.906 1.414-.924 1.426-1.71 1.426-1.42 0-3.02 1.076-3.02 2.024 0 .46 1.31 1.057 2.604 1.208.562.06 1.51.2 2.108.315 1.208.23 1.517.06 1.33-.725-.085-.357 0-.417.422-.417a1.244 1.244 0 0 0 .75-.224c.174-.169.223-.048.223.538 0 .828.501 1.208 1.027.785a.604.604 0 0 1 .49-.145c.12.043-.043.182-.37.314-.906.375-.785.919.4 1.813 2.126 1.625 3.624 1.722 5.261.338l.604-.483 1.003.38c2.242.846 3.843.26 7.854-2.87 3.552-2.778 5.268-3.624 7.431-3.624 1.25 0 1.311 0 1.97-.7a2.815 2.815 0 0 1 1.981-.931 15.575 15.575 0 0 0 1.764-.405c.743-.272-.562.979-2.096 2.006a4.833 4.833 0 0 0-2.296 2.966l-.115.604h.96c1.336 0 2.013-.332 4.272-2.09 3.691-2.876 4.664-3.353 6.507-3.178 1.111.103 1.305.073 1.6-.248a9.666 9.666 0 0 1 4.791-2.187 10.053 10.053 0 0 0 3.903-1.546 33.113 33.113 0 0 1 5.806-3.166 8.814 8.814 0 0 0 2.93-1.848 21.833 21.833 0 0 1 7.201-3.86 24.353 24.353 0 0 0 7.25-4.14c3.54-2.615 4.893-3.183 6.204-2.597l.737.326-1.015.756a13.14 13.14 0 0 1-1.89 1.16c-.822.38-2.188 1.637-2.188 2.011 0 .604 1.172.375 3.474-.725a30.938 30.938 0 0 0 11.974-8.101 37.704 37.704 0 0 1 9.666-6.694 3.993 3.993 0 0 1 1.142-.375 5.902 5.902 0 0 0 1.915-1.008 6.416 6.416 0 0 1 2.888-1.366 1.432 1.432 0 0 0 .767-.64 14.614 14.614 0 0 1 10.023-3.124l1.384.079 1.97 1.407a73.064 73.064 0 0 0 15.018 8.035 212.24 212.24 0 0 0 31.022 10.252c4.52 1.27 8.35 2.357 8.507 2.417.157.06.29 0 .29-.242 0-.876.779-.99 2.688-.398 1.208.368 1.299.374 1.89.096.684-.32.835-.67.285-.67a6.646 6.646 0 0 1-2.942-1.813l-1.088-.984.653.132a6.82 6.82 0 0 1 1.383.502 4.67 4.67 0 0 0 3.178.326c.242-.2.363-.163.75.193s.73.448 2.27.556a18.789 18.789 0 0 1 6.556 1.91c2.253.936 5.993.96 5.22.03a.803.803 0 0 0-.502-.29.236.236 0 0 1-.254-.206c0-.12.127-.15.327-.066a11.358 11.358 0 0 0 7.485 0 30.007 30.007 0 0 1 7.443-1.033h1.589l.332-.75c.278-.604.532-.84 1.51-1.304.888-.423 1.25-.707 1.474-1.209a1.335 1.335 0 0 1 1.082-.821c4.833-1.209 5.54-1.535 6.82-2.834a3.166 3.166 0 0 1 3.468-.628c.604.175 1.36-.9 1.366-1.951 0-.889.199-1.118 1.033-1.209 1.625-.181 1.812-1.317.561-3.522a10.307 10.307 0 0 1-.863-2.012c-.164-.64-.327-.888-.605-.948l-1.975-.387a32.321 32.321 0 0 1-7.624-2.573 30.871 30.871 0 0 0-10.131-2.942 2.574 2.574 0 0 1-1.952-.913c-1.009-.948-1.57-1.256-2.042-1.105-.235.072-.646-.115-1.25-.568a14.372 14.372 0 0 0-7.775-2.556 29.844 29.844 0 0 1-3.71-.84 4.048 4.048 0 0 0-1.867-.362 5.202 5.202 0 0 1-2.15-.465c-1.07-.338-3.57-.99-5.57-1.45a33.318 33.318 0 0 1-7.903-2.531 18.825 18.825 0 0 0-3.576-1.166 37.765 37.765 0 0 1-18.487-8.537l-1.68-1.583.93-.465a23.32 23.32 0 0 0 3.227-2.561 171.79 171.79 0 0 1 16.493-13.073 2452.74 2452.74 0 0 0 9.467-6.881 49.847 49.847 0 0 1 4.796-3.293.362.362 0 0 0 .357-.145c.085-.139.193-.139.362 0a28.642 28.642 0 0 0 8.229-6.186 45.141 45.141 0 0 1 6.935-5.37 9.612 9.612 0 0 0 1.843-1.415 45.153 45.153 0 0 1 9.497-8.174 79.994 79.994 0 0 0 8.216-5.932c1.897-1.559 2.477-1.952 2.676-1.813.339.278 1.209-.561 1.209-1.172 0-.362.217-.55 1.16-1.009a14.59 14.59 0 0 0 2.58-1.812 16.668 16.668 0 0 1 2.325-1.746 22.238 22.238 0 0 0 3.02-2.574 309.47 309.47 0 0 1 5.77-5.316c11.183-9.98 15.853-15.949 17.786-22.722a4.229 4.229 0 0 1 1.48-2.38c1.408-1.396 1.783-2.338 2.502-6.344a15.345 15.345 0 0 1 1.522-5.606c.32-.604.604-1.172.646-1.245.043-.072-.175-.138-.465-.138-.966 0-1.075-.206-1.208-2.193-.133-1.988-.193-2.163-1.849-5.075a4.658 4.658 0 0 1-.707-2.815c-.084-1.867 0-1.656-1.812-3.583-.707-.731-1.341-.882-1.74-.405-.211.254-.29.23-.719-.157a4.918 4.918 0 0 0-1.353-.761c-.912-.332-1.945-1.208-1.432-1.208a3.395 3.395 0 0 0 .979-.357 6.646 6.646 0 0 1 1.256-.477c.756-.163.64-.707-.163-.785-.531-.049-.574-.091-.374-.405.447-.707-.508-.894-5.184-1.04l-3.558-.108-.103-.514c-.097-.495-.133-.507-.713-.32a24.026 24.026 0 0 1-3.679.236 32.708 32.708 0 0 0-3.673.181c-.556.133-.604.109-.604-.29v-.435h-2.477a7.413 7.413 0 0 1-4.972-1.105l-.604-.448-.538.448a3.957 3.957 0 0 1-1.323.646c-1.843.46-2.743 1.166-2.193 1.71.368.368.217.447-.755.404a31.693 31.693 0 0 0-10.21 4.912 7.25 7.25 0 0 1-1.1 1.529 7.534 7.534 0 0 0-1.087 1.474 7.044 7.044 0 0 1-1.758 1.685c-.834.604-2.417 1.91-3.45 2.852a88.421 88.421 0 0 1-7.733 6.403 51.726 51.726 0 0 0-4.404 3.655 12.844 12.844 0 0 1-5.165 3.462 17.018 17.018 0 0 0-3.625 3.124 33.56 33.56 0 0 1-4.096 3.624 12.53 12.53 0 0 0-1.849 1.408 1.812 1.812 0 0 1-.9.604.495.495 0 0 0-.453.369.501.501 0 0 1-.532.368 1.021 1.021 0 0 0-.724.417 20.819 20.819 0 0 1-4.477 4 17.677 17.677 0 0 0-4.434 3.842 30.05 30.05 0 0 1-6.308 4.555 14.644 14.644 0 0 0-4.978 4.422 6.343 6.343 0 0 1-1.081 1.353c-.949 0-3.8 2.483-10.337 9.008a243.11 243.11 0 0 1-33.53 28.654c-3.299 2.417-3.655 2.61-3.71 2.23-.054-.381-.501-.72-1.486-1.384a45.159 45.159 0 0 1-9.89-9.165 110.92 110.92 0 0 0-9.061-10.27c-2.073-2.102-3.764-3.902-3.764-4 0-.223-.369-.144 7.159-1.485a135.72 135.72 0 0 0 32.255-8.507c.604-.265.664-.26 1.075.182l.43.459.966-.822a32.273 32.273 0 0 1 9.611-4.996 34.671 34.671 0 0 0 11.672-6.615c1.402-1.04 3.13-2.29 3.843-2.785a54.771 54.771 0 0 0 6.5-5.6c1.523-1.445 3.559-3.215 4.525-3.928 1.595-1.208 1.746-1.353 1.674-1.812-.09-.604 1.208-1.353 2.126-1.178.472.09.496.066.405-.495-.09-.562.073-.78 1.456-2.38a33.832 33.832 0 0 0 2.556-3.402 488.14 488.14 0 0 1 3.54-5.48 39.082 39.082 0 0 0 3.25-5.66 53.116 53.116 0 0 1 3.673-7.25 14.209 14.209 0 0 0 2.525-9.062c-.054-2.132-.066-2.211-.47-2.265-.406-.055-.418 0-.418.507 0 .508-.235.75-.447.41a59.658 59.658 0 0 1 .037-8.765l.217-.369v.369c.133 3.063.495 3.957 1.776 4.392 1.281.435 1.317.501.9-2.755-.108-.852-.084-.948.272-1.039.496-.127.526-1.07.103-3.075a9.914 9.914 0 0 1-.242-2.048c.043-.604-.078-.81-.846-1.655a14.312 14.312 0 0 1-2.918-4.616 11.11 11.11 0 0 0-5.189-6.446A92.97 92.97 0 0 0 180.513 9c-3.274-.604-6.917-1.377-12.723-2.755a41.601 41.601 0 0 0-8.657-1.39c-1.178-.054-2.471-.12-2.882-.15-.41-.03-2.247 0-4.09.078m60.142 29.814c0 1.39-.852 1.021-1.208-.52-.115-.513-.079-.604.302-.652.67-.109.894.187.894 1.166m-57.018 4.507a6.778 6.778 0 0 0 5.002.556l.84-.254.115 1.492c.15 1.91.157 8.82 0 9.207-.073.181-.339.29-.72.29a4.036 4.036 0 0 0-1.274.278 4.12 4.12 0 0 1-1.311.278c-.562 0-.695.097-1.075.773a3.866 3.866 0 0 1-1.082 1.209c-1.395.876-1.54 1.05-1.54 1.866v.768l-1.922 1.014a84.313 84.313 0 0 0-12.808 8.458 65.277 65.277 0 0 1-14.094 8.591c-1.208.483-1.498.701-1.697 1.166a3.945 3.945 0 0 1-5.147 1.849c-.69-.35-.683-.568.126-2.979a45.775 45.775 0 0 1 7.117-12.77c1.269-1.56 1.305-1.668.773-2.46-.531-.79-.477-1.02.393-2.416a48.089 48.089 0 0 0 3.625-7.455 25.978 25.978 0 0 1 5.564-9.243 17.937 17.937 0 0 1 5.86.477c5.86 1.045 8.15.834 9.666-.912.762-.87.75-.87 3.577.266m129.25 9.823c.066.103 0 .236-.181.296-.357.133-.556 0-.381-.29a.308.308 0 0 1 .568 0M251.5 210.626c.036.109-.103.242-.314.296-.212.054-.38 0-.38-.127 0-.477.543-.604.694-.163"/></svg>