<svg xmlns="http://www.w3.org/2000/svg" width="40" height="41" fill="none" viewBox="0 0 40 41"><path fill="#E5062F" d="M39.415.5H.585A.586.586 0 0 0 0 1.085v38.83c0 .322.263.585.585.585h38.83a.586.586 0 0 0 .585-.585V1.085A.586.586 0 0 0 39.415.5M15.423 11.404l1.013-1.762a.5.5 0 0 1 .432-.251h6.259c.18 0 .345.098.432.251l1.012 1.762a.52.52 0 0 1 0 .504l-1.931 3.331-1.198 2.074a.51.51 0 0 1-.438.252H18.98a.5.5 0 0 1-.438-.252l-1.198-2.074-1.932-3.331a.52.52 0 0 1 0-.504zm15.757 6.369-4.716 8.146-2.927 5.072a1.23 1.23 0 0 1-1.061.613h-4.952c-.437 0-.842-.235-1.061-.613l-2.927-5.072-4.716-8.146a1.23 1.23 0 0 1 0-1.226l2.473-4.3a1.23 1.23 0 0 1 1.061-.613h1.122l-.493.848-.405.706a.82.82 0 0 0 0 .815l3.13 5.406 1.942 3.364a.82.82 0 0 0 .706.405h3.288c.29 0 .558-.153.706-.405l1.942-3.364 3.13-5.406a.8.8 0 0 0 0-.815l-.405-.706-.493-.854h1.122c.438 0 .843.236 1.061.619l2.473 4.3c.22.378.22.848 0 1.226"/></svg>