<svg xmlns="http://www.w3.org/2000/svg" xml:space="preserve" x="0px" y="0px" viewBox="0 0 455 340"><path fill="#C63547" d="m24.247 339.717 6.5-46.881 26-66.189c5.977-18.01 8.148-33.4 9-44.126 1.652-20.802 3.348-42.173-9-62.178-6.128-9.928-13.742-16.321-19-20.057-.279-.895-5.185-17.499 5-28.08 3.322-3.451 7.178-5.149 10-6.017a234.154 234.154 0 0 0 44 12.034 233.481 233.481 0 0 0 27 3.009l7.463 130.428L24.247 339.717z" style="fill:#ea0046;fill-opacity:1"/><path fill="#C63547" d="m7.747 125.711-8-10.381 5-39.112 61-39.112c.079 3.316-.559 5.701-1 7.02-2.308 6.908-9.713 13.203-17 19.054-10.833 8.699-22.339 15.756-24 17.049-.066.051-.232.158-.221.322.054.818 5.409 1.05 7.221 3.689 3.405 4.959 3.328 11.933 0 18.052-3.795 4.189-7.417 6.601-10 8.023-4.172 2.297-6.552 2.518-9 5.014-3.073 3.133-3.827 7.376-4 10.382zm123-47.488 16 118.338 22-15.043-30-106.303zm15-7.02 37 102.293 23-10.029-52-97.278zm15-9.025 67 92.263 42.722-18.553-101.722-80.006zm15-10.753 123 69.922a777.358 777.358 0 0 0 68-44.126l-183-33.095-8 7.299zm13-11.31 201 20.057a630.358 630.358 0 0 0 65-60.172l-259 32.092-7 8.023z" style="fill:#ea0046;fill-opacity:1"/></svg>