<svg xmlns="http://www.w3.org/2000/svg" xml:space="preserve" width="238.95001" height="451.49799" version="2.0" viewBox="0 0.16 238.95002 451.498"><path fill="#ec1a39" d="m128.54 23.097 24.03 1.11a.33.33 0 0 1 .19.59l-18.79 15.01a.33.33 0 0 0-.11.35l6.37 23.19a.33.33 0 0 1-.5.36l-20.09-13.22a.33.33 0 0 0-.36 0l-20.09 13.22a.33.33 0 0 1-.5-.36l6.37-23.19a.33.33 0 0 0-.11-.35l-18.79-15.01a.33.33 0 0 1 .19-.59l24.03-1.11a.33.33 0 0 0 .29-.21l8.48-22.51a.33.33 0 0 1 .62 0l8.48 22.51a.33.33 0 0 0 .29.21" style="display:inline"/><rect width="238.92" height="47.919998" x="0.010000915" y="93.916862" fill="#fff" rx="0.63" style="fill:#131723;fill-opacity:1"/><path fill="#fff" d="M167.35 335.657q0 .33.25.11 18.71-16.88 22.49-40.92.91-5.82.91-19.96v-109.49a.24.24 0 0 1 .24-.24h47.46a.24.24 0 0 1 .24.24q-.02 68.72.01 137.5.01 23.2-12.62 40.8-3.36 4.67-13.46 14.74-46.59 46.47-93.02 92.96-.63.63-.63-.26v-237.24q0-.5-.5-.5H48.45q-.52 0-.52.52l.01 22.47q0 .52.52.52h46.69q.66 0 .66.67v46.59a.62.62 0 0 1-.62.62H48.54q-.61 0-.61.61l.02 94a.36.36 0 0 1-.62.26q-12.17-12.2-24.57-24.55c-11.46-11.39-18.69-22.54-21.63-38.28Q0 310.837 0 296.897v-131.5a.24.24 0 0 1 .24-.24H167.2a.18.17 0 0 1 .18.17z" style="fill:#131723;fill-opacity:1"/></svg>